<svg width="231" height="231" viewBox="0 0 231 231" fill="none" xmlns="http://www.w3.org/2000/svg">
<g clip-path="url(#clip0_1_2)">
<path d="M76.1204 171.173L49.1032 198.19C48.4329 198.861 47.6371 199.392 46.7613 199.755C45.8855 200.118 44.9468 200.305 43.9988 200.305C43.0508 200.305 42.1121 200.118 41.2363 199.755C40.3605 199.392 39.5647 198.861 38.8944 198.19L27.8097 187.106C27.1394 186.435 26.6077 185.639 26.2449 184.764C25.8821 183.888 25.6954 182.949 25.6954 182.001C25.6954 181.053 25.8821 180.114 26.2449 179.239C26.6077 178.363 27.1394 177.567 27.8097 176.897L54.8269 149.88C55.4973 149.209 56.029 148.413 56.3918 147.538C56.7545 146.662 56.9413 145.723 56.9413 144.775C56.9413 143.827 56.7545 142.888 56.3918 142.013C56.029 141.137 55.4973 140.341 54.8269 139.671L35.9794 120.823C34.6256 119.469 33.8651 117.633 33.8651 115.719C33.8651 113.804 34.6256 111.968 35.9794 110.614L47.4268 99.1669C48.7806 97.8131 50.6167 97.0526 52.5312 97.0526C54.4458 97.0526 56.2819 97.8131 57.6357 99.1669L126.833 168.364C128.187 169.718 128.947 171.554 128.947 173.469C128.947 175.383 128.187 177.219 126.833 178.573L115.386 190.021C114.032 191.374 112.196 192.135 110.281 192.135C108.367 192.135 106.531 191.374 105.177 190.021L86.3293 171.173C84.9755 169.819 83.1394 169.059 81.2249 169.059C79.3103 169.059 77.4742 169.819 76.1204 171.173Z" fill="#35677E"/>
<path d="M205.011 26.9894C203.657 25.6357 201.821 24.8752 199.906 24.875H199.883L142.315 25.0565C141.255 25.0599 140.209 25.2965 139.251 25.7495C138.294 26.2025 137.447 26.8608 136.772 27.6777L73.2506 104.572L65.7399 97.0616C63.0297 94.3588 59.3582 92.8411 55.5306 92.8412C51.703 92.8414 48.0317 94.3594 45.3217 97.0625L33.8759 108.509C32.535 109.85 31.4713 111.441 30.7456 113.193C30.0198 114.945 29.6462 116.822 29.6462 118.718C29.6461 120.614 30.0195 122.492 30.7451 124.243C31.4707 125.995 32.5342 127.587 33.875 128.927L52.722 147.775L25.7046 174.793C23.0012 177.502 21.483 181.174 21.4832 185.002C21.4834 188.829 23.0018 192.5 25.7055 195.21L36.79 206.295C38.1307 207.635 39.7223 208.699 41.474 209.424C43.2256 210.15 45.1031 210.523 46.9991 210.523C48.8951 210.523 50.7726 210.15 52.5242 209.424C54.2759 208.699 55.8675 207.635 57.2082 206.295L84.2247 179.277L103.073 198.126C105.783 200.829 109.454 202.346 113.282 202.346C117.109 202.346 120.781 200.828 123.491 198.125L134.937 186.678C136.277 185.338 137.341 183.746 138.067 181.995C138.793 180.243 139.166 178.365 139.166 176.469C139.166 174.573 138.793 172.696 138.067 170.944C137.342 169.192 136.278 167.601 134.938 166.26L127.427 158.75L204.322 95.2278C205.139 94.553 205.797 93.7065 206.25 92.7486C206.703 91.7907 206.94 90.7448 206.943 89.6851L207.125 32.1167C207.128 31.1649 206.943 30.2219 206.58 29.342C206.217 28.462 205.684 27.6625 205.011 26.9894ZM113.281 187.916L94.4343 169.068C93.0936 167.728 91.502 166.664 89.7503 165.939C87.9986 165.213 86.1212 164.84 84.2252 164.84C82.3292 164.84 80.4517 165.213 78.7 165.939C76.9483 166.664 75.3567 167.728 74.0161 169.068L46.9987 196.086L35.9141 185.001L62.9315 157.984C65.6348 155.274 67.153 151.603 67.153 147.775C67.153 143.948 65.6348 140.276 62.9315 137.567L44.0845 118.719L55.5313 107.271L68.6168 120.357L68.6179 120.358L90.1274 141.868L90.1296 141.87L90.1318 141.872L124.728 176.469L113.281 187.916ZM192.517 86.2538L117.172 148.495L105.443 136.766L154.48 87.7298C155.834 86.3759 156.594 84.5397 156.594 82.625C156.594 80.7103 155.834 78.8741 154.48 77.5202C153.126 76.1664 151.29 75.4058 149.375 75.4058C147.46 75.4058 145.624 76.1664 144.27 77.5202L95.2344 126.557L83.5057 114.827L145.746 39.483L192.665 39.3354L192.517 86.2538Z" fill="#002537"/>
</g>
<defs>
<clipPath id="clip0_1_2">
<rect width="231" height="231" fill="white"/>
</clipPath>
</defs>
</svg>
