<svg width="231" height="220" viewBox="0 0 231 220" fill="none" xmlns="http://www.w3.org/2000/svg">
<g clip-path="url(#clip0_1_17)">
<path d="M76.1204 171.173L49.1032 198.19C48.4329 198.861 47.6371 199.392 46.7613 199.755C45.8855 200.118 44.9468 200.305 43.9988 200.305C43.0508 200.305 42.1121 200.118 41.2363 199.755C40.3605 199.392 39.5647 198.861 38.8944 198.19L27.8097 187.106C27.1394 186.435 26.6077 185.639 26.2449 184.764C25.8821 183.888 25.6954 182.949 25.6954 182.001C25.6954 181.053 25.8821 180.114 26.2449 179.239C26.6077 178.363 27.1394 177.567 27.8097 176.897L54.8269 149.88C55.4972 149.209 56.029 148.413 56.3918 147.538C56.7545 146.662 56.9413 145.723 56.9413 144.775C56.9413 143.827 56.7545 142.888 56.3918 142.013C56.029 141.137 55.4972 140.341 54.8269 139.671L35.9794 120.823C34.6256 119.469 33.8651 117.633 33.8651 115.719C33.8651 113.804 34.6256 111.968 35.9794 110.614L47.4268 99.1669C48.7806 97.8132 50.6167 97.0526 52.5312 97.0526C54.4458 97.0526 56.2819 97.8132 57.6357 99.1669L126.833 168.364C128.187 169.718 128.947 171.554 128.947 173.469C128.947 175.383 128.187 177.219 126.833 178.573L115.386 190.021C114.032 191.374 112.196 192.135 110.281 192.135C108.367 192.135 106.531 191.374 105.177 190.021L86.3293 171.173C84.9755 169.819 83.1394 169.059 81.2249 169.059C79.3103 169.059 77.4742 169.819 76.1204 171.173Z" fill="#BC5090"/>
<path d="M205.011 20.9894C203.657 19.6357 201.821 18.8752 199.906 18.875H199.883L142.315 19.0565C141.255 19.0599 140.209 19.2965 139.251 19.7495C138.294 20.2025 137.447 20.8608 136.772 21.6777L73.2506 98.5725L65.7399 91.0616C63.0297 88.3588 59.3582 86.8411 55.5306 86.8412C51.703 86.8414 48.0317 88.3595 45.3217 91.0625L33.8759 102.509C32.535 103.85 31.4713 105.441 30.7456 107.193C30.0198 108.945 29.6462 110.822 29.6462 112.718C29.6461 114.614 30.0195 116.492 30.7451 118.243C31.4707 119.995 32.5342 121.587 33.875 122.927L52.722 141.775L25.7046 168.793C23.0012 171.502 21.483 175.174 21.4832 179.002C21.4834 182.829 23.0018 186.501 25.7055 189.21L36.79 200.295C38.1307 201.635 39.7223 202.699 41.474 203.424C43.2256 204.15 45.1031 204.523 46.9991 204.523C48.8951 204.523 50.7726 204.15 52.5242 203.424C54.2759 202.699 55.8675 201.635 57.2082 200.295L84.2247 173.277L103.073 192.126C105.783 194.829 109.454 196.346 113.282 196.346C117.109 196.346 120.781 194.828 123.491 192.125L134.937 180.678C136.277 179.338 137.341 177.746 138.067 175.995C138.793 174.243 139.166 172.365 139.166 170.469C139.166 168.573 138.793 166.696 138.067 164.944C137.342 163.192 136.278 161.601 134.938 160.26L127.427 152.75L204.322 89.2278C205.139 88.553 205.797 87.7065 206.25 86.7486C206.703 85.7907 206.94 84.7448 206.943 83.6851L207.125 26.1167C207.128 25.1649 206.943 24.2219 206.58 23.342C206.217 22.462 205.684 21.6625 205.011 20.9894ZM113.281 181.916L94.4342 163.068C93.0936 161.728 91.502 160.664 89.7503 159.939C87.9986 159.213 86.1212 158.84 84.2252 158.84C82.3292 158.84 80.4517 159.213 78.7 159.939C76.9483 160.664 75.3567 161.728 74.0161 163.068L46.9987 190.086L35.9141 179.001L62.9315 151.984C65.6348 149.274 67.153 145.603 67.153 141.775C67.153 137.948 65.6348 134.276 62.9315 131.567L44.0845 112.719L55.5312 101.271L68.6168 114.357L68.6179 114.358L90.1274 135.868L90.1296 135.87L90.1318 135.872L124.728 170.469L113.281 181.916ZM192.517 80.2538L117.172 142.495L105.443 130.766L154.48 81.7298C155.834 80.3759 156.594 78.5397 156.594 76.625C156.594 74.7103 155.834 72.8741 154.48 71.5202C153.126 70.1664 151.29 69.4058 149.375 69.4058C147.46 69.4058 145.624 70.1664 144.27 71.5202L95.2344 120.557L83.5057 108.827L145.746 33.483L192.665 33.3354L192.517 80.2538Z" fill="#9AB3BE"/>
</g>
<defs>
<clipPath id="clip0_1_17">
<rect width="231" height="220" fill="white"/>
</clipPath>
</defs>
</svg>
