<svg width="1021" height="220" viewBox="0 0 1021 220" fill="none" xmlns="http://www.w3.org/2000/svg">
<g clip-path="url(#clip0_1_11)">
<path d="M76.1204 171.173L49.1032 198.19C48.4329 198.861 47.6371 199.392 46.7613 199.755C45.8855 200.118 44.9468 200.305 43.9988 200.305C43.0508 200.305 42.1121 200.118 41.2363 199.755C40.3605 199.392 39.5647 198.861 38.8944 198.19L27.8097 187.106C27.1394 186.435 26.6077 185.639 26.2449 184.764C25.8821 183.888 25.6954 182.949 25.6954 182.001C25.6954 181.053 25.8821 180.114 26.2449 179.239C26.6077 178.363 27.1394 177.567 27.8097 176.897L54.8269 149.88C55.4972 149.209 56.029 148.413 56.3917 147.538C56.7545 146.662 56.9412 145.723 56.9412 144.775C56.9412 143.827 56.7545 142.888 56.3917 142.013C56.029 141.137 55.4972 140.341 54.8269 139.671L35.9794 120.823C34.6256 119.469 33.8651 117.633 33.8651 115.719C33.8651 113.804 34.6256 111.968 35.9794 110.614L47.4268 99.1669C48.7806 97.8131 50.6167 97.0526 52.5312 97.0526C54.4458 97.0526 56.2819 97.8131 57.6357 99.1669L126.833 168.364C128.187 169.718 128.947 171.554 128.947 173.469C128.947 175.383 128.187 177.219 126.833 178.573L115.386 190.021C114.032 191.374 112.196 192.135 110.281 192.135C108.367 192.135 106.531 191.374 105.177 190.021L86.3293 171.173C84.9755 169.819 83.1394 169.059 81.2249 169.059C79.3103 169.059 77.4742 169.819 76.1204 171.173Z" fill="#35677E"/>
<path d="M205.011 24.9894C203.657 23.6357 201.821 22.8752 199.906 22.875H199.883L142.315 23.0565C141.255 23.0599 140.209 23.2965 139.251 23.7495C138.294 24.2025 137.447 24.8608 136.772 25.6777L73.2506 102.572L65.7399 95.0616C63.0297 92.3588 59.3582 90.8411 55.5306 90.8412C51.703 90.8414 48.0317 92.3594 45.3217 95.0625L33.8759 106.509C32.535 107.85 31.4713 109.441 30.7456 111.193C30.0198 112.945 29.6463 114.822 29.6462 116.718C29.6461 118.614 30.0195 120.492 30.7451 122.243C31.4707 123.995 32.5342 125.587 33.875 126.927L52.722 145.775L25.7046 172.793C23.0012 175.502 21.483 179.174 21.4832 183.002C21.4834 186.829 23.0018 190.5 25.7055 193.21L36.79 204.295C38.1307 205.635 39.7223 206.699 41.474 207.424C43.2257 208.15 45.1031 208.523 46.9991 208.523C48.8951 208.523 50.7726 208.15 52.5243 207.424C54.2759 206.699 55.8675 205.635 57.2082 204.295L84.2247 177.277L103.073 196.126C105.783 198.829 109.454 200.346 113.282 200.346C117.109 200.346 120.781 198.828 123.491 196.125L134.937 184.678C136.278 183.338 137.341 181.746 138.067 179.995C138.793 178.243 139.166 176.365 139.166 174.469C139.166 172.573 138.793 170.696 138.067 168.944C137.342 167.192 136.278 165.601 134.938 164.26L127.427 156.75L204.322 93.2278C205.139 92.553 205.797 91.7065 206.25 90.7486C206.703 89.7907 206.94 88.7448 206.943 87.6851L207.125 30.1167C207.128 29.1649 206.943 28.2219 206.58 27.342C206.217 26.462 205.684 25.6625 205.011 24.9894ZM113.281 185.916L94.4343 167.068C93.0936 165.728 91.502 164.664 89.7503 163.939C87.9986 163.213 86.1212 162.84 84.2252 162.84C82.3292 162.84 80.4517 163.213 78.7 163.939C76.9484 164.664 75.3568 165.728 74.0161 167.068L46.9987 194.086L35.9141 183.001L62.9315 155.984C65.6348 153.274 67.153 149.603 67.153 145.775C67.153 141.948 65.6348 138.276 62.9315 135.567L44.0845 116.719L55.5313 105.271L68.6168 118.357L68.6179 118.358L90.1274 139.868L90.1296 139.87L90.1318 139.872L124.728 174.469L113.281 185.916ZM192.517 84.2538L117.172 146.495L105.444 134.766L154.48 85.7298C155.834 84.3759 156.594 82.5397 156.594 80.625C156.594 78.7103 155.834 76.8741 154.48 75.5202C153.126 74.1664 151.29 73.4058 149.375 73.4058C147.46 73.4058 145.624 74.1664 144.27 75.5202L95.2344 124.557L83.5057 112.827L145.746 37.483L192.665 37.3354L192.517 84.2538Z" fill="#002537"/>
<path d="M241.33 162V57.2727H280.602C288.648 57.2727 295.398 58.6705 300.852 61.4659C306.341 64.2614 310.483 68.1818 313.278 73.2273C316.108 78.2386 317.523 84.0852 317.523 90.767C317.523 97.483 316.091 103.312 313.227 108.256C310.398 113.165 306.222 116.966 300.699 119.659C295.176 122.318 288.392 123.648 280.347 123.648H252.375V107.898H277.79C282.494 107.898 286.347 107.25 289.347 105.955C292.347 104.625 294.563 102.699 295.994 100.176C297.46 97.6193 298.193 94.483 298.193 90.767C298.193 87.0511 297.46 83.8807 295.994 81.2557C294.528 78.5966 292.295 76.5852 289.295 75.2216C286.295 73.8239 282.426 73.125 277.688 73.125H260.301V162H241.33ZM295.432 114.545L321.358 162H300.188L274.722 114.545H295.432ZM354.855 163.534C346.98 163.534 340.179 161.898 334.452 158.625C328.759 155.318 324.378 150.648 321.31 144.614C318.242 138.545 316.708 131.403 316.708 123.188C316.708 115.108 318.242 108.017 321.31 101.915C324.412 95.7784 328.742 91.0057 334.299 87.5966C339.855 84.1534 346.384 82.4318 353.884 82.4318C358.725 82.4318 363.293 83.2159 367.588 84.7841C371.918 86.3182 375.736 88.7045 379.043 91.9432C382.384 95.1818 385.009 99.3068 386.918 104.318C388.827 109.295 389.781 115.227 389.781 122.114V127.79H325.401V115.312H372.037C372.003 111.767 371.236 108.614 369.736 105.852C368.236 103.057 366.139 100.858 363.446 99.2557C360.787 97.6534 357.685 96.8523 354.139 96.8523C350.355 96.8523 347.031 97.7727 344.168 99.6136C341.304 101.42 339.071 103.807 337.469 106.773C335.901 109.705 335.1 112.926 335.066 116.438V127.33C335.066 131.898 335.901 135.818 337.571 139.091C339.242 142.33 341.577 144.818 344.577 146.557C347.577 148.261 351.088 149.114 355.111 149.114C357.804 149.114 360.242 148.739 362.424 147.989C364.605 147.205 366.497 146.062 368.1 144.562C369.702 143.062 370.912 141.205 371.73 138.989L389.014 140.932C387.924 145.5 385.844 149.489 382.776 152.898C379.742 156.273 375.855 158.898 371.117 160.773C366.378 162.614 360.958 163.534 354.855 163.534ZM460.391 83.4545L432.419 162H411.965L383.993 83.4545H403.732L421.783 141.801H422.601L440.704 83.4545H460.391ZM460.241 162V83.4545H478.752V162H460.241ZM469.548 72.3068C466.616 72.3068 464.093 71.3352 461.979 69.392C459.866 67.4148 458.809 65.0454 458.809 62.2841C458.809 59.4886 459.866 57.1193 461.979 55.1761C464.093 53.1989 466.616 52.2102 469.548 52.2102C472.513 52.2102 475.036 53.1989 477.116 55.1761C479.229 57.1193 480.286 59.4886 480.286 62.2841C480.286 65.0454 479.229 67.4148 477.116 69.392C475.036 71.3352 472.513 72.3068 469.548 72.3068ZM519.6 163.534C511.725 163.534 504.924 161.898 499.197 158.625C493.504 155.318 489.123 150.648 486.055 144.614C482.987 138.545 481.453 131.403 481.453 123.188C481.453 115.108 482.987 108.017 486.055 101.915C489.157 95.7784 493.487 91.0057 499.044 87.5966C504.6 84.1534 511.129 82.4318 518.629 82.4318C523.47 82.4318 528.038 83.2159 532.333 84.7841C536.663 86.3182 540.481 88.7045 543.788 91.9432C547.129 95.1818 549.754 99.3068 551.663 104.318C553.572 109.295 554.526 115.227 554.526 122.114V127.79H490.146V115.312H536.782C536.748 111.767 535.981 108.614 534.481 105.852C532.981 103.057 530.884 100.858 528.191 99.2557C525.532 97.6534 522.43 96.8523 518.884 96.8523C515.1 96.8523 511.776 97.7727 508.913 99.6136C506.049 101.42 503.816 103.807 502.214 106.773C500.646 109.705 499.845 112.926 499.811 116.438V127.33C499.811 131.898 500.646 135.818 502.316 139.091C503.987 142.33 506.322 144.818 509.322 146.557C512.322 148.261 515.833 149.114 519.856 149.114C522.549 149.114 524.987 148.739 527.169 147.989C529.35 147.205 531.242 146.062 532.845 144.562C534.447 143.062 535.657 141.205 536.475 138.989L553.759 140.932C552.669 145.5 550.589 149.489 547.521 152.898C544.487 156.273 540.6 158.898 535.862 160.773C531.123 162.614 525.703 163.534 519.6 163.534ZM573.015 162L550.822 83.4545H569.691L583.498 138.682H584.214L598.328 83.4545H616.993L631.106 138.375H631.873L645.476 83.4545H664.396L642.152 162H622.873L608.146 108.92H607.072L592.345 162H573.015ZM665.179 162V57.2727H705.27C712.838 57.2727 719.128 58.4659 724.139 60.8523C729.185 63.2045 732.952 66.4261 735.44 70.517C737.963 74.608 739.224 79.2443 739.224 84.4261C739.224 88.6875 738.406 92.3352 736.77 95.3693C735.133 98.3693 732.935 100.807 730.173 102.682C727.412 104.557 724.327 105.903 720.918 106.722V107.744C724.633 107.949 728.196 109.091 731.605 111.17C735.048 113.216 737.861 116.114 740.043 119.864C742.224 123.614 743.315 128.148 743.315 133.466C743.315 138.886 742.003 143.761 739.378 148.091C736.753 152.386 732.798 155.778 727.514 158.267C722.23 160.756 715.582 162 707.571 162H665.179ZM684.151 146.148H704.554C711.44 146.148 716.401 144.835 719.435 142.21C722.503 139.551 724.037 136.142 724.037 131.983C724.037 128.881 723.27 126.085 721.736 123.597C720.202 121.074 718.02 119.097 715.19 117.665C712.361 116.199 708.986 115.466 705.065 115.466H684.151V146.148ZM684.151 101.812H702.918C706.19 101.812 709.139 101.216 711.764 100.023C714.389 98.7955 716.452 97.0739 717.952 94.858C719.486 92.608 720.253 89.9489 720.253 86.8807C720.253 82.8239 718.821 79.4829 715.957 76.8579C713.128 74.2329 708.918 72.9204 703.327 72.9204H684.151V101.812ZM764.553 57.2727V162H746.041V57.2727H764.553ZM793.231 163.585C788.253 163.585 783.77 162.699 779.782 160.926C775.827 159.119 772.691 156.46 770.373 152.949C768.088 149.437 766.946 145.108 766.946 139.96C766.946 135.528 767.765 131.864 769.401 128.966C771.037 126.068 773.27 123.75 776.1 122.011C778.929 120.273 782.117 118.96 785.662 118.074C789.242 117.153 792.941 116.489 796.759 116.08C801.361 115.602 805.094 115.176 807.958 114.801C810.821 114.392 812.901 113.778 814.196 112.96C815.526 112.108 816.191 110.795 816.191 109.023V108.716C816.191 104.864 815.049 101.881 812.765 99.767C810.481 97.6534 807.191 96.5966 802.895 96.5966C798.361 96.5966 794.765 97.5852 792.106 99.5625C789.481 101.54 787.708 103.875 786.787 106.568L769.503 104.114C770.867 99.3409 773.117 95.3523 776.253 92.1477C779.39 88.9091 783.225 86.4886 787.759 84.8864C792.293 83.25 797.304 82.4318 802.793 82.4318C806.577 82.4318 810.344 82.875 814.094 83.7614C817.844 84.6477 821.27 86.1136 824.373 88.1591C827.475 90.1705 829.963 92.9148 831.838 96.392C833.748 99.8693 834.702 104.216 834.702 109.432V162H816.907V151.21H816.293C815.168 153.392 813.583 155.437 811.537 157.347C809.526 159.222 806.986 160.739 803.918 161.898C800.884 163.023 797.321 163.585 793.231 163.585ZM798.037 149.983C801.753 149.983 804.975 149.25 807.702 147.784C810.429 146.284 812.526 144.307 813.992 141.852C815.492 139.398 816.242 136.722 816.242 133.824V124.568C815.662 125.045 814.674 125.489 813.276 125.898C811.912 126.307 810.378 126.665 808.674 126.972C806.969 127.278 805.282 127.551 803.611 127.79C801.941 128.028 800.492 128.233 799.265 128.403C796.503 128.778 794.032 129.392 791.85 130.244C789.668 131.097 787.946 132.29 786.685 133.824C785.424 135.324 784.793 137.267 784.793 139.653C784.793 143.062 786.037 145.636 788.526 147.375C791.015 149.114 794.185 149.983 798.037 149.983ZM869.503 163.381C863.333 163.381 857.81 161.795 852.935 158.625C848.06 155.455 844.208 150.852 841.378 144.818C838.549 138.784 837.134 131.455 837.134 122.83C837.134 114.102 838.566 106.739 841.43 100.739C844.327 94.7045 848.231 90.1534 853.14 87.0852C858.049 83.983 863.52 82.4318 869.555 82.4318C874.157 82.4318 877.941 83.2159 880.907 84.7841C883.873 86.3182 886.225 88.1761 887.964 90.358C889.702 92.5057 891.049 94.5341 892.003 96.4432H892.77V57.2727H911.333V162H893.128V149.625H892.003C891.049 151.534 889.668 153.562 887.861 155.71C886.055 157.824 883.668 159.631 880.702 161.131C877.736 162.631 874.003 163.381 869.503 163.381ZM874.668 148.193C878.589 148.193 881.93 147.136 884.691 145.023C887.452 142.875 889.549 139.892 890.981 136.074C892.413 132.256 893.128 127.807 893.128 122.727C893.128 117.648 892.413 113.233 890.981 109.483C889.583 105.733 887.503 102.818 884.742 100.739C882.015 98.6591 878.657 97.6193 874.668 97.6193C870.543 97.6193 867.1 98.6932 864.339 100.841C861.577 102.989 859.498 105.955 858.1 109.739C856.702 113.523 856.003 117.852 856.003 122.727C856.003 127.636 856.702 132.017 858.1 135.869C859.532 139.687 861.628 142.705 864.39 144.92C867.185 147.102 870.611 148.193 874.668 148.193ZM952.872 163.534C944.997 163.534 938.195 161.898 932.468 158.625C926.775 155.318 922.394 150.648 919.326 144.614C916.258 138.545 914.724 131.403 914.724 123.188C914.724 115.108 916.258 108.017 919.326 101.915C922.428 95.7784 926.758 91.0057 932.315 87.5966C937.872 84.1534 944.4 82.4318 951.9 82.4318C956.741 82.4318 961.309 83.2159 965.605 84.7841C969.934 86.3182 973.752 88.7045 977.059 91.9432C980.4 95.1818 983.025 99.3068 984.934 104.318C986.843 109.295 987.798 115.227 987.798 122.114V127.79H923.417V115.312H970.053C970.019 111.767 969.252 108.614 967.752 105.852C966.252 103.057 964.156 100.858 961.463 99.2557C958.803 97.6534 955.701 96.8523 952.156 96.8523C948.372 96.8523 945.048 97.7727 942.184 99.6136C939.32 101.42 937.088 103.807 935.485 106.773C933.917 109.705 933.116 112.926 933.082 116.438V127.33C933.082 131.898 933.917 135.818 935.588 139.091C937.258 142.33 939.593 144.818 942.593 146.557C945.593 148.261 949.105 149.114 953.127 149.114C955.82 149.114 958.258 148.739 960.44 147.989C962.622 147.205 964.514 146.062 966.116 144.562C967.718 143.062 968.928 141.205 969.747 138.989L987.031 140.932C985.94 145.5 983.86 149.489 980.792 152.898C977.758 156.273 973.872 158.898 969.133 160.773C964.394 162.614 958.974 163.534 952.872 163.534Z" fill="#003249"/>
</g>
<defs>
<clipPath id="clip0_1_11">
<rect width="1021" height="220" fill="white"/>
</clipPath>
</defs>
</svg>
